<svg width="50" height="50" viewBox="0 0 50 50" fill="none" xmlns="http://www.w3.org/2000/svg">
<path d="M44.5018 20.4687C44.0465 19.4491 43.0552 18.7902 41.9762 18.7902H36.1795V18.7452C36.1795 18.2144 35.8886 17.7523 35.4618 17.5171C36.3681 16.4871 36.881 15.1469 36.881 13.7098C36.881 10.5615 34.3833 8 31.3131 8C30.5788 8 29.9229 8.18019 29.9224 8.18027L17.2254 11.6839C15.6802 12.0402 14.5219 13.4578 14.5219 15.1484C14.5219 15.9801 14.8029 16.7455 15.2717 17.3514H15.1795C14.4301 17.3514 13.8205 17.9766 13.8205 18.7452V18.7901H8.0238C6.94476 18.7901 5.95341 19.449 5.49822 20.4687C4.51803 22.6642 4 25.3019 4 28.0968C4 30.8916 4.51811 33.5293 5.49822 35.7247C5.95349 36.7443 6.94484 37.4032 8.0238 37.4032H12.1165L11.8034 39.6512H11.6722C11.3091 39.6512 11.0146 39.9531 11.0146 40.3256C11.0146 40.698 11.309 41 11.6722 41H16.5824C16.9456 41 17.2401 40.6981 17.2401 40.3256C17.2401 39.9532 16.9457 39.6512 16.5824 39.6512H16.4514L16.1382 37.4032H33.8618L33.5486 39.6512H33.4176C33.0544 39.6512 32.7599 39.9531 32.7599 40.3256C32.7599 40.698 33.0543 41 33.4176 41H38.3278C38.6909 41 38.9854 40.6981 38.9854 40.3256C38.9854 39.9532 38.691 39.6512 38.3278 39.6512H38.1967L37.8835 37.4032H41.9763C43.0553 37.4032 44.0467 36.7443 44.5019 35.7247C45.482 33.5292 46 30.8916 46 28.0968C46 25.3019 45.4819 22.6641 44.5018 20.4687ZM31.3131 9.34874C33.658 9.34874 35.5657 11.3051 35.5657 13.7097C35.5657 15.0049 35.0181 16.1963 34.0751 17.018V12.9904C34.0751 12.2219 33.4655 11.5967 32.716 11.5967H29.9101C29.1607 11.5967 28.5511 12.2219 28.5511 12.9904V17.018C27.608 16.1962 27.0605 15.005 27.0605 13.7097C27.0605 11.3051 28.9683 9.34874 31.3131 9.34874ZM29.8664 14.4741V12.9904C29.8664 12.9656 29.886 12.9455 29.9102 12.9455H32.7161C32.7403 12.9455 32.7599 12.9656 32.7599 12.9904V14.4741H29.8664ZM32.7599 15.8229V17.3515H29.8664V15.8229H32.7599ZM26.7428 10.4542C26.1149 11.3785 25.7453 12.5004 25.7453 13.7097C25.7453 15.071 26.2057 16.3452 27.0246 17.3514H20.6991C21.1678 16.7455 21.4489 15.9801 21.4489 15.1484C21.4488 13.9837 20.8992 12.9482 20.052 12.3001L26.7428 10.4542ZM17.9854 12.9455C19.17 12.9455 20.1337 13.9338 20.1337 15.1485C20.1337 16.3632 19.17 17.3515 17.9854 17.3515C16.8009 17.3515 15.8372 16.3632 15.8372 15.1485C15.8372 13.9338 16.8009 12.9455 17.9854 12.9455ZM15.1357 18.7452C15.1357 18.7204 15.1553 18.7003 15.1795 18.7003H34.8204C34.8446 18.7003 34.8642 18.7204 34.8642 18.7452V20.1839C34.8642 20.2087 34.8446 20.2288 34.8204 20.2288H15.1795C15.1553 20.2288 15.1357 20.2087 15.1357 20.1839V18.7452H15.1357ZM13.132 39.6513L13.6401 36.0032C13.6432 35.9812 13.6619 35.9647 13.6835 35.9647H14.5712C14.5929 35.9647 14.6116 35.9813 14.6146 36.0032L15.1226 39.6513H13.132ZM34.8773 39.6513L35.3855 36.0032C35.3885 35.9812 35.4072 35.9647 35.4289 35.9647H36.3165C36.3382 35.9647 36.3569 35.9813 36.3599 36.0032L36.868 39.6513H34.8773ZM43.3059 35.1632C43.0643 35.7046 42.5423 36.0545 41.9762 36.0545H41.7912V25.2193C41.7912 24.8469 41.4968 24.5449 41.1336 24.5449C40.7704 24.5449 40.4759 24.8468 40.4759 25.2193V36.0545H37.6955L37.6617 35.8125C37.5666 35.1303 36.9883 34.6158 36.3163 34.6158H35.4286C34.7566 34.6158 34.1783 35.1303 34.0832 35.8125L34.0496 36.0545H15.9503L15.9166 35.8125C15.8215 35.1303 15.2432 34.6158 14.5712 34.6158H13.6835C13.0115 34.6158 12.4332 35.1303 12.3381 35.8125L12.3045 36.0545H9.52398V25.2193C9.52398 24.8469 9.22957 24.5449 8.86634 24.5449C8.50311 24.5449 8.2087 24.8468 8.2087 25.2193V36.0545H8.0238C7.4577 36.0545 6.93573 35.7046 6.69407 35.1632C5.80485 33.1716 5.31521 30.662 5.31521 28.0968C5.31521 25.5315 5.80485 23.022 6.69399 21.0303C6.93565 20.4889 7.45762 20.139 8.02371 20.139H8.2087V22.342C8.2087 22.7144 8.50311 23.0164 8.86634 23.0164C9.22957 23.0164 9.52398 22.7145 9.52398 22.342V20.139H13.8205V20.1839C13.8205 20.9525 14.4301 21.5777 15.1795 21.5777H16.6263V21.6226C16.6263 21.995 16.9207 22.297 17.284 22.297C17.6472 22.297 17.9416 21.9951 17.9416 21.6226V21.5777H32.0585V21.6226C32.0585 21.995 32.353 22.297 32.7162 22.297C33.0794 22.297 33.3738 21.9951 33.3738 21.6226V21.5777H34.8206C35.5701 21.5777 36.1797 20.9525 36.1797 20.1839V20.139H40.4762V22.342C40.4762 22.7144 40.7706 23.0164 41.1338 23.0164C41.497 23.0164 41.7915 22.7145 41.7915 22.342V20.139H41.9764C42.5425 20.139 43.0644 20.4889 43.3061 21.0303C44.1953 23.0219 44.685 25.5315 44.685 28.0968C44.685 30.662 44.1951 33.1715 43.3059 35.1632Z" fill="#555555"/>
</svg>
