<svg width="50" height="50" viewBox="0 0 50 50" fill="none" xmlns="http://www.w3.org/2000/svg">
<path d="M34.8704 5H14.1296C10.1939 5.00476 7.00475 8.20303 7 12.15V39.45C7 39.809 7.29021 40.1 7.64815 40.1H8.94444V43.35C8.94444 43.709 9.23466 44 9.59259 44H13.4815C13.8394 44 14.1296 43.709 14.1296 43.35V40.1H34.8704V43.35C34.8704 43.709 35.1606 44 35.5185 44H39.4074C39.7653 44 40.0556 43.709 40.0556 43.35V40.1H41.3518C41.7098 40.1 42 39.809 42 39.45V12.15C41.9953 8.20303 38.8061 5.00476 34.8704 5ZM14.1296 6.3H34.8704C38.0905 6.30349 40.7002 8.92063 40.7037 12.15V34.9H8.2963V12.15C8.29978 8.92063 10.9095 6.30349 14.1296 6.3ZM12.8333 42.7H10.2407V40.1H12.8333V42.7ZM38.7593 42.7H36.1667V40.1H38.7593V42.7ZM8.2963 38.8V36.2H40.7037V38.8H8.2963Z" fill="#555555"/>
<path d="M12.8333 27.0999C13.9071 27.0999 14.7777 26.2268 14.7777 25.1499V17.3499C14.7777 16.273 13.9071 15.3999 12.8333 15.3999C11.7595 15.3999 10.8889 16.273 10.8889 17.3499V25.1499C10.8889 26.2268 11.7595 27.0999 12.8333 27.0999ZM12.1851 17.3499C12.1851 16.9909 12.4754 16.6999 12.8333 16.6999C13.1912 16.6999 13.4814 16.9909 13.4814 17.3499V25.1499C13.4814 25.5089 13.1912 25.7999 12.8333 25.7999C12.4754 25.7999 12.1851 25.5089 12.1851 25.1499V17.3499Z" fill="#555555"/>
<path d="M38.1111 12.8001V16.0501H39.4074V12.8001C39.4042 9.92969 37.0844 7.60327 34.2222 7.6001V8.9001C36.3692 8.90232 38.1089 10.647 38.1111 12.8001Z" fill="#555555"/>
<path d="M38.1111 17.3501H39.4074V18.6501H38.1111V17.3501Z" fill="#555555"/>
</svg>
