<svg width="50" height="50" viewBox="0 0 50 50" fill="none" xmlns="http://www.w3.org/2000/svg">
<path d="M41.9165 36.7561L33.6135 28.4531L33.4893 27.8305C33.3473 27.119 32.8277 26.5462 32.1333 26.3358C31.4387 26.1254 30.6888 26.3133 30.1757 26.8264L29.4127 27.5894L27.0918 25.2685L34.2937 18.0666C34.9075 17.4527 35.6832 16.9831 36.5369 16.7082C37.286 16.4671 37.9776 16.044 38.537 15.4845C39.5034 14.5182 40.0237 13.2334 40.0021 11.8668C39.9806 10.5002 39.4189 9.23128 38.4204 8.29385C38.2414 8.12578 37.9886 8.06159 37.7508 8.12411C37.5133 8.18663 37.3247 8.36691 37.2515 8.60139L36.4412 11.1985C36.347 11.5005 36.1408 11.7478 35.8606 11.8948C35.5804 12.0417 35.2599 12.0708 34.9576 11.9765C34.6556 11.8822 34.4083 11.6761 34.2614 11.3959C34.1145 11.1157 34.0854 10.795 34.1796 10.493L34.9805 7.92561C35.0542 7.68963 35.0004 7.43233 34.8382 7.24563C34.6761 7.05894 34.4289 6.96948 34.185 7.00933C33.2576 7.16045 32.3977 7.5653 31.6983 8.18014C30.4681 9.26179 29.8419 10.8776 30.0232 12.5023C30.2041 14.122 29.6262 15.7326 28.4378 16.921L23.591 21.7679L13.5922 11.7681L13.7424 9.67638C13.7621 9.40276 13.6231 9.14221 13.3849 9.00616L10.3624 7.27892C10.083 7.11932 9.73167 7.16639 9.50416 7.39382L8.20887 8.68919C7.98145 8.91661 7.93446 9.26805 8.09397 9.5473L9.82113 12.5698C9.94871 12.7931 10.1856 12.9292 10.4402 12.9292C10.4571 12.9292 10.4742 12.9286 10.4914 12.9274L12.5839 12.7771L22.5825 22.7765L15.3809 29.9781C14.767 30.592 13.9913 31.0617 13.1376 31.3365C12.3886 31.5776 11.6969 32.0008 11.1375 32.5601C10.1711 33.5265 9.65084 34.8113 9.67239 36.1779C9.69395 37.5446 10.2556 38.8135 11.2541 39.7508C11.4332 39.919 11.686 39.9831 11.9237 39.9205C12.1612 39.858 12.3498 39.6777 12.423 39.4433L13.2333 36.8462C13.4278 36.2227 14.0932 35.8733 14.7169 36.0683C15.0189 36.1625 15.2662 36.3687 15.4131 36.6489C15.56 36.9291 15.5891 37.2498 15.4949 37.5518L14.694 40.1191C14.6203 40.3551 14.6741 40.6124 14.8363 40.7991C14.9729 40.9565 15.17 41.0448 15.3747 41.0448C15.4128 41.0448 15.4512 41.0417 15.4895 41.0355C16.4169 40.8844 17.2768 40.4794 17.9761 39.8647C19.2064 38.783 19.8326 37.1672 19.6512 35.5425C19.4704 33.9228 20.0482 32.3122 21.2367 31.1238L26.0832 26.2773L28.4041 28.5983L27.6414 29.361C27.1283 29.8741 26.9403 30.6242 27.1507 31.3186C27.3611 32.013 27.9339 32.5326 28.6454 32.6745L29.268 32.7987L37.571 41.1017C38.17 41.7008 38.9567 42.0003 39.7436 42.0003C40.5303 42.0002 41.3174 41.7007 41.9163 41.1017C43.1145 39.9035 43.1145 37.9542 41.9165 36.7561ZM12.1903 11.3753L10.8369 11.4725L9.60266 9.31258L10.1276 8.78761L12.2875 10.0219L12.1903 11.3753ZM20.2281 30.115C18.7314 31.6117 18.0045 33.6475 18.2337 35.7005C18.3634 36.8628 17.9151 38.0188 17.0344 38.7932C16.8615 38.9452 16.6747 39.0792 16.4767 39.1938L16.8566 37.9763C17.0642 37.3106 17.0002 36.6039 16.6764 35.9862C16.3525 35.3686 15.8075 34.914 15.1417 34.7064C14.885 34.6264 14.6224 34.5867 14.361 34.5867C13.9443 34.5867 13.531 34.6876 13.1515 34.8866C12.5339 35.2105 12.0794 35.7555 11.8717 36.4213L11.4733 37.6984C11.2365 37.2251 11.1073 36.7011 11.0987 36.1554C11.0833 35.1781 11.4553 34.2596 12.1462 33.5687C12.552 33.1629 13.0327 32.8686 13.5748 32.6941C14.643 32.3503 15.6164 31.7599 16.3896 30.9866L29.4465 17.9297C30.9432 16.433 31.6702 14.3972 31.441 12.3441C31.3112 11.182 31.7596 10.0258 32.6403 9.25141C32.8132 9.09942 33 8.96543 33.1979 8.85076L32.818 10.0682C32.6103 10.7339 32.6744 11.4407 32.9982 12.0584C33.3221 12.676 33.8671 13.1305 34.5329 13.3382C35.1987 13.5458 35.9055 13.4818 36.5231 13.158C37.1407 12.8341 37.5952 12.2891 37.8029 11.6233L38.2013 10.3462C38.4382 10.8195 38.5674 11.3435 38.576 11.8893C38.5914 12.8664 38.2194 13.7851 37.5285 14.476C37.1227 14.8818 36.642 15.1759 36.0998 15.3505C35.0316 15.6943 34.0582 16.2849 33.2851 17.058L20.2281 30.115ZM28.9246 31.2755C28.6398 31.2187 28.5439 30.9973 28.5158 30.9047C28.4878 30.8121 28.4447 30.5747 28.6501 30.3693L31.1843 27.8351C31.3099 27.7095 31.4475 27.6769 31.5567 27.6769C31.626 27.6769 31.6838 27.69 31.7197 27.7009C31.8123 27.729 32.0338 27.825 32.0906 28.1098L32.1825 28.5702L29.3852 31.3675L28.9246 31.2755ZM40.9079 40.0929C40.266 40.7348 39.2216 40.7347 38.5797 40.0929L30.6282 32.1414L32.9565 29.8131L40.908 37.7647C41.219 38.0756 41.3901 38.489 41.3901 38.9288C41.3901 39.3685 41.2189 39.782 40.9079 40.0929Z" fill="#555555"/>
</svg>
