<svg width="50" height="50" viewBox="0 0 50 50" fill="none" xmlns="http://www.w3.org/2000/svg">
<path d="M31.9487 13.8838V9.7191H33.1242C33.4953 9.70647 33.7934 9.40991 33.8083 9.03914V6.61364C33.8083 6.25645 33.4814 6 33.1242 6H17.4778C17.1206 6 16.8298 6.25645 16.8298 6.61364V9.03914C16.8298 9.39633 17.1206 9.7191 17.4778 9.7191H18.6893V13.8845C16.1021 13.9625 14 16.0917 14 18.6995V35.9562C14.0019 37.8167 15.0706 39.5111 16.7489 40.3139V43.3859C16.7489 43.7431 17.0609 43.9995 17.4181 43.9995H33.1836C33.3494 44.0061 33.5104 43.9439 33.6286 43.8277C33.747 43.7115 33.812 43.5517 33.8083 43.3859V40.318C35.5304 39.5506 36.6393 37.8413 36.638 35.9559V18.6991C36.6364 16.0892 34.5577 13.9546 31.9487 13.8838ZM18.1234 7.2936H32.5147V8.4255H18.1234V7.2936ZM30.6551 9.7191V13.8425H27.6637V11.5903C27.6646 11.2309 27.3763 10.9375 27.0169 10.9319H23.6212C23.2618 10.9375 22.9734 11.2309 22.9744 11.5903V13.8425H19.9829V9.7191H30.6551ZM26.3701 13.8425H24.268V12.2255H26.3701V13.8425ZM15.2936 24.2721H35.3444V29.4465H15.2936V24.2721ZM32.5147 42.7059H18.0425V40.714C18.3002 40.7513 18.5604 40.7684 18.821 40.7655H31.7835C32.0283 40.7684 32.2727 40.7516 32.5147 40.7153V42.7059ZM31.7835 39.4719H18.8213C16.8771 39.4732 15.2987 37.9001 15.2936 35.9559V30.7401H35.3444V35.9505C35.3444 37.8975 33.7303 39.4719 31.7835 39.4719ZM35.3444 22.9785H15.2936V18.7001C15.2936 16.7575 16.8787 15.1361 18.821 15.1361H31.8164C33.7593 15.1361 35.3444 16.7575 35.3444 18.6995V22.9785Z" fill="#555555"/>
</svg>
