<svg width="50" height="50" viewBox="0 0 50 50" fill="none" xmlns="http://www.w3.org/2000/svg">
<path d="M23.5828 30.6428V30.1516L23.2397 30.503C21.8243 31.9528 19.8703 32.8017 17.7969 32.8017C13.5962 32.8017 10.1766 29.3667 10.1766 25.1429C10.1766 24.6323 10.5881 24.2202 11.0938 24.2202H19.0271H19.5148L19.1675 23.8778C17.7248 22.4554 16.8797 20.4913 16.8797 18.4067C16.8797 14.183 20.2993 10.7479 24.5 10.7479C25.0057 10.7479 25.4172 11.16 25.4172 11.6706V19.643V20.1341L25.7603 19.7828C27.1762 18.333 29.1297 17.4841 31.2031 17.4841C35.4038 17.4841 38.8234 20.9191 38.8234 25.1429C38.8234 25.6535 38.4119 26.0656 37.9062 26.0656H29.9729H29.4852L29.8325 26.408C31.2752 27.8304 32.1203 29.7945 32.1203 31.879C32.1203 36.1028 28.7007 39.5379 24.5 39.5379C23.9943 39.5379 23.5828 39.1258 23.5828 38.6152V30.6428ZM25.4172 37.3798V37.6249L25.6573 37.5757C28.2954 37.0351 30.2859 34.6861 30.2859 31.879C30.2859 30.1941 29.5575 28.6129 28.3283 27.5208L28.1578 27.3692L28.0298 27.5581C27.4498 28.4146 26.5747 29.0375 25.5671 29.2984L25.4172 29.3372V29.492V37.3798ZM36.6769 24.2202H36.9215L36.8729 23.9805C36.3357 21.3309 33.9983 19.3294 31.2031 19.3294C29.525 19.3294 27.9516 20.062 26.8648 21.2971L26.7156 21.4668L26.9021 21.5943C27.7541 22.177 28.3742 23.0566 28.6336 24.0698L28.6721 24.2202H28.8274H36.6769ZM23.5828 12.906V12.6609L23.3427 12.7101C20.7046 13.2507 18.7141 15.5997 18.7141 18.4067C18.7141 20.0921 19.4425 21.6733 20.6717 22.7651L20.8423 22.9165L20.9702 22.7277C21.5502 21.8712 22.4253 21.2483 23.4329 20.9874L23.5828 20.9486V20.7938V12.906ZM20.3659 26.2159L20.3274 26.0656H20.1722H12.3231H12.0784L12.1271 26.3054C12.6648 28.9548 15.0016 30.9564 17.7969 30.9564C19.4749 30.9564 21.0488 30.2238 22.1352 28.9886L22.2844 28.819L22.0979 28.6915C21.2459 28.1088 20.6257 27.2292 20.3659 26.2159ZM26.9344 25.1429C26.9344 23.7943 25.8497 22.6975 24.5 22.6975C23.1556 22.6975 22.0656 23.7894 22.0656 25.1429C22.0656 26.4915 23.1503 27.5883 24.5 27.5883C25.8444 27.5883 26.9344 26.4969 26.9344 25.1429Z" fill="#555555" stroke="white" stroke-width="0.4"/>
<path d="M43.4 25C43.4 35.1142 34.9547 43.3428 24.5 43.3428C14.0453 43.3428 5.6 35.1142 5.6 25C5.6 14.8858 14.0453 6.65713 24.5 6.65713C34.9547 6.65713 43.4 14.8858 43.4 25Z" stroke="#555555" stroke-width="1.2"/>
</svg>
