<svg width="50" height="50" viewBox="0 0 50 50" fill="none" xmlns="http://www.w3.org/2000/svg">
<path d="M41.3552 33.3292L41.355 33.3291L37.278 31.0206L37.051 30.892L37.2763 30.7605L40.7182 28.7518L40.7296 28.7452L40.7298 28.7457C41.1912 28.5279 41.3516 27.9042 41.0744 27.4327L41.0742 27.4324C40.8023 26.967 40.2076 26.8569 39.7418 27.1227L41.3552 33.3292ZM41.3552 33.3292C41.8188 33.5908 41.9983 34.1871 41.7116 34.6435L41.7115 34.6437C41.5225 34.9457 41.2557 35.0958 40.8759 35.0958C40.6589 35.0958 40.48 35.0661 40.3558 34.9956C40.3558 34.9956 40.3557 34.9955 40.3557 34.9955L36.2587 32.6445L36.0379 32.5178L36.0341 32.7723L35.9729 36.8111C35.9645 37.3498 35.5496 37.7641 34.9962 37.7641C34.4466 37.7641 34.0148 37.3158 34.0194 36.7718L34.0194 36.7717L34.0601 31.5123L34.0608 31.4241L33.9841 31.3806L26.7319 27.2648L26.5079 27.1376V27.3952V35.7469V35.8357L26.5857 35.8784L31.1542 38.3881C31.6452 38.6581 31.8142 39.2434 31.5472 39.7065L31.547 39.7068C31.448 39.8794 31.3281 39.9996 31.1881 40.0776C31.0477 40.1559 30.8783 40.1967 30.6732 40.1967C30.5055 40.1967 30.3444 40.1653 30.2141 40.0919L30.2131 40.0913L26.7305 38.1639L26.5079 38.0407V38.2951V42.895C26.5079 43.4271 26.069 43.85 25.5106 43.85C24.9558 43.85 24.5339 43.4306 24.5339 42.895V38.2181V37.963L24.311 38.0869L20.7052 40.0914L20.7044 40.0919C20.575 40.1649 20.4144 40.1967 20.2248 40.1967C20.032 40.1967 19.8755 40.1557 19.7438 40.0779C19.6116 39.9997 19.4948 39.8788 19.3907 39.7045L19.3906 39.7044C19.1106 39.2367 19.2755 38.6573 19.7644 38.3881L19.7645 38.388L24.4564 35.7968L24.5339 35.754V35.6655V27.4381V27.1821L24.3106 27.3072L16.8941 31.4616L16.8167 31.5049L16.8174 31.5937L16.8585 36.7717C16.8627 37.3196 16.4482 37.7641 15.9023 37.7641H15.8612C15.3446 37.7641 14.8901 37.3458 14.8845 36.8118L14.8434 32.9144L14.8407 32.6609L14.6198 32.7852L10.6347 35.0284C10.5081 35.0769 10.3981 35.1146 10.3089 35.1402C10.2136 35.1674 10.1537 35.1772 10.1248 35.1772C9.93205 35.1772 9.7754 35.1362 9.6435 35.0587C9.51115 34.9809 9.39447 34.8609 9.29045 34.6888C9.00907 34.2185 9.16233 33.6434 9.64619 33.3674L9.64634 33.3673L13.6822 31.0588L13.9081 30.9296L13.6831 30.7989L10.1593 28.7518C10.1593 28.7518 10.1592 28.7518 10.1591 28.7517C9.70666 28.4874 9.55823 27.9155 9.82609 27.4291L9.82632 27.4286C10.0691 26.9842 10.6828 26.84 11.1765 27.1225C11.1767 27.1226 11.1768 27.1227 11.177 27.1228L15.7859 29.7949L15.8604 29.8381L15.9352 29.7956L23.3312 25.5984L23.5622 25.4672L23.3306 25.3371L15.9346 21.1827L15.8601 21.1408L15.786 21.1836L11.1764 23.8519L11.1753 23.8526C11.0159 23.9466 10.8546 23.9945 10.6576 23.9945C10.2774 23.9945 10.0105 23.8443 9.82196 23.5425L9.82173 23.5421C9.52655 23.0726 9.68687 22.4507 10.1479 22.2328L10.1481 22.2334L10.1597 22.2266L13.6837 20.1579L13.908 20.0263L13.6817 19.8981L9.64616 17.6111C9.16594 17.3378 9.02563 16.7752 9.29351 16.2847C9.54153 15.8355 10.1354 15.6666 10.6246 15.9446L10.6251 15.9449L14.6198 18.1934L14.8407 18.3178L14.8434 18.0643L14.8845 14.1669C14.8902 13.6291 15.3484 13.1931 15.8612 13.1931H15.9023C16.4622 13.1931 16.9102 13.669 16.8594 14.1495L16.8586 14.1568L16.8585 14.1641L16.8174 19.3464L16.8167 19.4347L16.8936 19.4782L24.31 23.6712L24.5339 23.7977V23.5406V15.2703V15.1818L24.4564 15.139L19.7645 12.5478L19.7645 12.5477C19.2848 12.2831 19.1155 11.7032 19.3914 11.2302C19.664 10.7673 20.2133 10.6167 20.7066 10.8836C20.7066 10.8837 20.7066 10.8837 20.7067 10.8837L24.3119 12.8536L24.5339 12.9748V12.7219V8.1221C24.5339 7.58351 24.9588 7.15 25.5106 7.15C26.0659 7.15 26.5079 7.58703 26.5079 8.1221V12.6792V12.9336L26.7305 12.8104L30.2128 10.8832C30.7057 10.6118 31.271 10.7563 31.5476 11.2301L31.5476 11.2301C31.8158 11.6894 31.6214 12.2888 31.1538 12.5479L31.1533 12.5482L26.5847 15.1008L26.5079 15.1437V15.2317V23.5834V23.841L26.7319 23.7139L33.9841 19.598L34.0608 19.5545L34.0601 19.4664L34.0194 14.1642V14.1641C34.0153 13.6628 34.4467 13.1932 34.9961 13.1932C35.5458 13.1932 35.9645 13.6251 35.9729 14.1677L36.0341 18.185L36.0379 18.4384L36.2582 18.3131L40.3557 15.9832L40.3559 15.9831C40.8365 15.7087 41.46 15.8757 41.7071 16.3274L41.7073 16.3278C41.9737 16.8115 41.8116 17.3919 41.3551 17.6495L41.3549 17.6496L37.278 19.9581L37.0509 20.0866L37.2763 20.2181L40.7182 22.2268L40.7179 22.2273L40.7297 22.2329C41.1864 22.4485 41.344 23.057 41.0784 23.5386C40.838 23.8433 40.534 23.9945 40.1998 23.9945C40.024 23.9945 39.8706 23.9431 39.7545 23.8598L39.7483 23.8554L39.7416 23.8516L35.1525 21.2219L35.0785 21.1795L35.0042 21.2214L27.711 25.3373L27.4807 25.4672L27.7104 25.5982L35.0037 29.7569L35.0783 29.7994L35.1527 29.7567L39.7415 27.1229L41.3552 33.3292ZM26.8079 27.4803L33.9101 31.5111L26.8079 27.4803ZM26.8079 27.4803V27.3952H26.6579L26.5839 27.5257L26.6579 27.5677V35.7469L31.2265 38.2567L26.8079 27.4803ZM10.0838 22.0972C9.53083 22.3585 9.35817 23.0866 9.69475 23.622C9.91151 23.9689 10.2271 24.1445 10.6576 24.1445L10.0838 22.0972Z" fill="#555555" stroke="white" stroke-width="0.3"/>
</svg>
