<svg width="50" height="50" viewBox="0 0 50 50" fill="none" xmlns="http://www.w3.org/2000/svg">
<path d="M43.2109 12.5955H41.5687L41.5703 9.62533C41.5713 7.63129 39.9688 6.0081 37.9975 6.00713L25.5338 6C25.5332 6 25.5329 6 25.5322 6C24.8228 6 24.1557 6.27945 23.6539 6.78711L5.04686 25.6117C4.3717 26.2948 4 27.2028 4 28.1689C4 29.1349 4.3717 30.043 5.04686 30.726L17.1221 42.9425C17.8191 43.6476 18.7345 44 19.6497 44C20.5652 44 21.4807 43.6476 22.1776 42.9425L33.8927 31.0904C34.2131 30.7662 34.2131 30.2407 33.8927 29.9169C33.5723 29.5927 33.0528 29.5927 32.7324 29.9169L21.0173 41.769C20.2633 42.5318 19.0364 42.5318 18.2824 41.769L6.20715 29.5525C5.84186 29.1829 5.64062 28.6915 5.64062 28.1689C5.64062 27.6463 5.84186 27.1548 6.20715 26.7853L24.8138 7.96098C25.0058 7.76679 25.2608 7.65981 25.5322 7.65981L37.9965 7.66695C39.0629 7.66727 39.9303 8.5458 39.9297 9.62468L39.9258 16.579H36.2309C35.9127 16.579 35.6246 16.4474 35.4164 16.2354C35.7596 16.0866 36.0813 15.8717 36.361 15.5887C37.5399 14.3957 37.5399 12.4551 36.361 11.2625C35.1818 10.0695 33.2637 10.0695 32.0845 11.2625C30.9056 12.4551 30.9056 14.3957 32.0845 15.5887C32.5216 16.0308 33.0605 16.3087 33.6255 16.4231C34.027 17.4835 35.0431 18.2389 36.2309 18.2389H39.9249L39.9226 22.2172C39.9226 22.4918 39.8169 22.7495 39.625 22.9434L37.3729 25.2221C37.0525 25.5462 37.0525 26.0717 37.3729 26.3959C37.6931 26.7198 38.2125 26.7198 38.5329 26.3959L40.7852 24.1173C41.2864 23.6099 41.5629 22.9356 41.5633 22.2182L41.5655 18.2389H43.2109C44.7487 18.2389 46 16.9732 46 15.4172C46 13.8614 44.7487 12.5955 43.2109 12.5955ZM33.2448 12.436C33.5146 12.163 33.8687 12.0269 34.2231 12.0269C34.5771 12.0269 34.9312 12.1634 35.201 12.436C35.2863 12.5225 35.3568 12.6182 35.4151 12.719C34.5147 12.9981 33.8071 13.7272 33.5486 14.6459C33.4399 14.5847 33.3371 14.5085 33.2448 14.4151C32.7055 13.8692 32.7055 12.9816 33.2448 12.436ZM43.2109 16.579H41.5665L41.5677 14.2553H43.2109C43.8441 14.2553 44.3594 14.7766 44.3594 15.4172C44.3594 16.0578 43.8441 16.579 43.2109 16.579Z" fill="#555555"/>
<path d="M17.241 26.9389C17.3419 27.3062 17.6717 27.5464 18.0306 27.5464C18.1036 27.5464 18.1776 27.5367 18.251 27.5159L26.672 25.1445C27.1084 25.0217 27.3638 24.5639 27.2424 24.1224C27.1209 23.6812 26.6688 23.4228 26.2321 23.5457L17.8111 25.9167C17.3749 26.0399 17.1196 26.4973 17.241 26.9389Z" fill="#555555"/>
<path d="M20.9478 28.0338C20.4908 28.4961 20.2393 29.1104 20.2393 29.7643C20.2393 30.4178 20.4908 31.0321 20.9478 31.4944C21.4195 31.9713 22.0385 32.2099 22.6579 32.2099C23.2773 32.2099 23.8967 31.9713 24.3684 31.4944C25.3115 30.5404 25.3115 28.9878 24.3684 28.0338C23.4254 27.0797 21.8908 27.0797 20.9478 28.0338ZM23.2081 30.3206C22.9047 30.6276 22.4112 30.6276 22.1078 30.3206C21.9607 30.1721 21.8799 29.9743 21.8799 29.7639C21.8799 29.5539 21.961 29.3561 22.1078 29.2073C22.2596 29.054 22.459 28.9771 22.6579 28.9771C22.8573 28.9771 23.0566 29.054 23.2081 29.2073C23.5116 29.5143 23.5116 30.0139 23.2081 30.3206Z" fill="#555555"/>
<path d="M24.7747 23.0928C25.7178 22.1384 25.7178 20.5863 24.7747 19.6322C24.3178 19.1699 23.7103 18.9154 23.0643 18.9154C22.4183 18.9154 21.8107 19.1699 21.3541 19.6322C20.4111 20.5863 20.4111 22.1384 21.3541 23.0928C21.8258 23.5697 22.4449 23.8083 23.0643 23.8083C23.6837 23.8083 24.3031 23.5697 24.7747 23.0928ZM22.5141 20.8057C22.6612 20.6569 22.8566 20.5752 23.0643 20.5752C23.2722 20.5752 23.4677 20.6569 23.6144 20.8057C23.9179 21.1127 23.9179 21.612 23.6144 21.919C23.3113 22.226 22.8175 22.226 22.5141 21.919C22.2109 21.612 22.2109 21.1127 22.5141 20.8057Z" fill="#555555"/>
<path d="M12.1589 25.224C11.8385 24.8999 11.319 24.8999 10.9986 25.224L8.66777 27.5821C8.51396 27.7378 8.42744 27.9488 8.42744 28.1689C8.42744 28.389 8.51396 28.6001 8.66777 28.7557L19.07 39.2796C19.2299 39.4414 19.4401 39.5224 19.65 39.5224C19.8599 39.5224 20.0698 39.4414 20.23 39.2796L35.7826 23.5448C36.1031 23.2206 36.1031 22.6951 35.7826 22.3709L25.3807 11.8473C25.2269 11.6917 25.0183 11.6042 24.8007 11.6042C24.5831 11.6042 24.3745 11.6917 24.2207 11.8473L15.6391 20.5292C15.3187 20.8534 15.3187 21.3789 15.6391 21.7031C15.9593 22.027 16.4787 22.027 16.7991 21.7031L24.8007 13.6079L34.0427 22.958L19.65 37.519L10.4081 28.1689L12.1589 26.3976C12.479 26.0734 12.4793 25.5482 12.1589 25.224Z" fill="#555555"/>
<path d="M35.633 27.3263C35.417 27.3263 35.2055 27.4151 35.053 27.5694C34.9005 27.7237 34.8127 27.938 34.8127 28.1562C34.8127 28.3744 34.9005 28.5887 35.053 28.743C35.2055 28.8973 35.417 28.9861 35.633 28.9861C35.8486 28.9861 36.0601 28.8973 36.213 28.743C36.3655 28.5887 36.4533 28.3744 36.4533 28.1562C36.4533 27.938 36.3655 27.7237 36.213 27.5694C36.0601 27.4151 35.8486 27.3263 35.633 27.3263Z" fill="#555555"/>
<path d="M14.4785 24.05C14.632 23.8957 14.7192 23.6823 14.7192 23.4632C14.7192 23.245 14.632 23.0317 14.4785 22.8764C14.326 22.7221 14.1152 22.6333 13.8989 22.6333C13.6829 22.6333 13.4714 22.7221 13.3189 22.8764C13.166 23.0307 13.0786 23.245 13.0786 23.4632C13.0786 23.6823 13.166 23.8957 13.3189 24.05C13.472 24.2052 13.6829 24.2931 13.8989 24.2931C14.1152 24.2931 14.326 24.2052 14.4785 24.05Z" fill="#555555"/>
</svg>
