<svg width="50" height="50" viewBox="0 0 50 50" fill="none" xmlns="http://www.w3.org/2000/svg">
<path d="M26.5 14.3281C24.346 14.3281 22.2404 14.9668 20.4495 16.1635C18.6585 17.3602 17.2627 19.0611 16.4384 21.0511C15.6141 23.0411 15.3984 25.2308 15.8186 27.3434C16.2389 29.456 17.2761 31.3965 18.7992 32.9196C20.3222 34.4427 22.2628 35.4799 24.3753 35.9001C26.4879 36.3203 28.6777 36.1047 30.6677 35.2804C32.6577 34.4561 34.3585 33.0602 35.5552 31.2693C36.7519 29.4783 37.3906 27.3727 37.3906 25.2188C37.3874 22.3314 36.239 19.5632 34.1973 17.5215C32.1556 15.4798 29.3874 14.3313 26.5 14.3281ZM26.5 34.8281C24.5994 34.8281 22.7416 34.2645 21.1613 33.2087C19.5811 32.1528 18.3494 30.652 17.6221 28.8961C16.8948 27.1402 16.7045 25.2081 17.0753 23.3441C17.446 21.48 18.3612 19.7678 19.7051 18.4239C21.049 17.08 22.7613 16.1648 24.6253 15.794C26.4893 15.4232 28.4215 15.6135 30.1773 16.3408C31.9332 17.0682 33.434 18.2998 34.4899 19.8801C35.5458 21.4603 36.1094 23.3182 36.1094 25.2188C36.1065 27.7664 35.0932 30.2089 33.2917 32.0104C31.4902 33.8119 29.0477 34.8252 26.5 34.8281Z" fill="#555555"/>
<path d="M26.5 16.8906C24.8529 16.8906 23.2427 17.3791 21.8732 18.2942C20.5036 19.2093 19.4362 20.5099 18.8058 22.0317C18.1755 23.5535 18.0106 25.228 18.3319 26.8435C18.6533 28.459 19.4464 29.9429 20.6111 31.1076C21.7758 32.2723 23.2598 33.0655 24.8753 33.3868C26.4908 33.7082 28.1653 33.5433 29.687 32.9129C31.2088 32.2826 32.5095 31.2151 33.4246 29.8456C34.3397 28.476 34.8281 26.8659 34.8281 25.2187C34.8256 23.0108 33.9473 20.894 32.3861 19.3327C30.8248 17.7714 28.708 16.8932 26.5 16.8906ZM26.5 32.2656C25.1063 32.2656 23.7438 31.8523 22.585 31.078C21.4261 30.3037 20.5229 29.2031 19.9895 27.9155C19.4562 26.6278 19.3166 25.2109 19.5885 23.844C19.8604 22.477 20.5316 21.2214 21.5171 20.2359C22.5026 19.2503 23.7583 18.5792 25.1252 18.3073C26.4922 18.0354 27.9091 18.1749 29.1967 18.7083C30.4844 19.2416 31.5849 20.1449 32.3593 21.3037C33.1336 22.4626 33.5469 23.825 33.5469 25.2187C33.5447 27.087 32.8015 28.8781 31.4805 30.1992C30.1594 31.5203 28.3683 32.2634 26.5 32.2656Z" fill="#555555"/>
<path d="M26.5 19.4531C25.3597 19.4531 24.245 19.7913 23.2968 20.4248C22.3487 21.0583 21.6097 21.9588 21.1733 23.0123C20.7369 24.0659 20.6227 25.2251 20.8452 26.3436C21.0676 27.462 21.6168 28.4893 22.4231 29.2957C23.2294 30.102 24.2568 30.6511 25.3752 30.8736C26.4936 31.0961 27.6529 30.9819 28.7064 30.5455C29.7599 30.1091 30.6604 29.3701 31.2939 28.422C31.9275 27.4738 32.2656 26.3591 32.2656 25.2188C32.2639 23.6901 31.6559 22.2246 30.575 21.1437C29.4941 20.0628 28.0286 19.4548 26.5 19.4531ZM26.5 29.7031C25.6131 29.7031 24.7461 29.4401 24.0086 28.9474C23.2712 28.4546 22.6964 27.7543 22.357 26.9348C22.0176 26.1154 21.9288 25.2138 22.1018 24.3439C22.2748 23.474 22.7019 22.675 23.3291 22.0478C23.9562 21.4207 24.7553 20.9936 25.6252 20.8205C26.495 20.6475 27.3967 20.7363 28.2161 21.0757C29.0355 21.4151 29.7359 21.9899 30.2286 22.7274C30.7214 23.4648 30.9844 24.3318 30.9844 25.2188C30.9829 26.4076 30.5099 27.5473 29.6693 28.388C28.8286 29.2286 27.6889 29.7016 26.5 29.7031Z" fill="#555555"/>
<path d="M43.7969 9.84375V6.64062C43.7969 6.47072 43.7294 6.30778 43.6092 6.18763C43.4891 6.06749 43.3262 6 43.1562 6H40.5938C40.4238 6 40.2609 6.06749 40.1408 6.18763C40.0206 6.30778 39.9531 6.47072 39.9531 6.64062V9.84375C39.7832 9.84375 39.6203 9.91124 39.5001 10.0314C39.38 10.1515 39.3125 10.3145 39.3125 10.4844V14.3281C39.3125 14.8378 39.515 15.3267 39.8754 15.6871C40.2358 16.0475 40.7247 16.25 41.2344 16.25V22.6562C41.2369 25.649 40.323 28.5707 38.6155 31.0286C39.6057 28.9801 40.0589 26.7135 39.9325 24.4417C39.8061 22.1699 39.1043 19.9676 37.8929 18.0415C36.6815 16.1155 35.0004 14.5291 33.0075 13.4313C31.0146 12.3334 28.7753 11.7603 26.5 11.7656H25.8594C21.6132 11.7704 17.5423 13.4593 14.5399 16.4617C11.5374 19.4642 9.8485 23.5351 9.84375 27.7812V32.9062H9.20312C8.35392 32.9073 7.53978 33.2451 6.9393 33.8455C6.33882 34.446 6.00102 35.2602 6 36.1094V41.2344C6 41.4043 6.06749 41.5672 6.18763 41.6874C6.30778 41.8075 6.47072 41.875 6.64062 41.875H7.28125V43.7969C7.28125 43.9668 7.34874 44.1297 7.46888 44.2499C7.58903 44.37 7.75197 44.4375 7.92188 44.4375H13.0469C13.2168 44.4375 13.3797 44.37 13.4999 44.2499C13.62 44.1297 13.6875 43.9668 13.6875 43.7969V41.875H14.3281C14.498 41.875 14.661 41.8075 14.7811 41.6874C14.9013 41.5672 14.9688 41.4043 14.9688 41.2344V36.1094C14.9677 35.2602 14.6299 34.446 14.0295 33.8455C13.429 33.2451 12.6148 32.9073 11.7656 32.9062H11.125V27.7812C11.1242 25.7234 11.5555 23.6882 12.391 21.8076C13.2265 19.9269 14.4476 18.2426 15.9752 16.8637C14.3984 18.8424 13.4124 21.2261 13.1306 23.7404C12.8488 26.2548 13.2827 28.7976 14.3824 31.0762C15.4821 33.3548 17.2028 35.2766 19.3466 36.6203C21.4903 37.9641 23.9699 38.6752 26.5 38.6719C30.7462 38.6671 34.817 36.9782 37.8195 33.9758C40.822 30.9733 42.5109 26.9024 42.5156 22.6562V16.25C43.0253 16.25 43.5142 16.0475 43.8746 15.6871C44.235 15.3267 44.4375 14.8378 44.4375 14.3281V10.4844C44.4375 10.3145 44.37 10.1515 44.2499 10.0314C44.1297 9.91124 43.9668 9.84375 43.7969 9.84375ZM12.4062 43.1562H8.5625V41.875H12.4062V43.1562ZM13.6875 36.1094V40.5938H7.28125V36.1094C7.28125 35.5997 7.48373 35.1108 7.84415 34.7504C8.20458 34.39 8.69341 34.1875 9.20312 34.1875H11.7656C12.2753 34.1875 12.7642 34.39 13.1246 34.7504C13.485 35.1108 13.6875 35.5997 13.6875 36.1094ZM14.3281 25.2188C14.3281 22.8114 15.042 20.4581 16.3795 18.4564C17.7169 16.4548 19.6179 14.8947 21.842 13.9734C24.0661 13.0521 26.5135 12.8111 28.8746 13.2808C31.2357 13.7504 33.4045 14.9097 35.1068 16.6119C36.8091 18.3142 37.9683 20.483 38.438 22.8441C38.9076 25.2052 38.6666 27.6526 37.7453 29.8767C36.8241 32.1008 35.264 34.0018 33.2623 35.3393C31.2607 36.6768 28.9074 37.3906 26.5 37.3906C23.2729 37.3871 20.179 36.1035 17.8971 33.8216C15.6152 31.5397 14.3317 28.4458 14.3281 25.2188ZM41.2344 7.28125H42.5156V9.84375H41.2344V7.28125ZM43.1562 14.3281C43.1562 14.498 43.0888 14.661 42.9686 14.7811C42.8485 14.9013 42.6855 14.9688 42.5156 14.9688H41.2344C41.0645 14.9688 40.9015 14.9013 40.7814 14.7811C40.6612 14.661 40.5938 14.498 40.5938 14.3281V11.125H43.1562V14.3281Z" fill="#555555"/>
</svg>
